Coordinates
version=1
nRows=19
nColumns=24
inDegrees=yes

Units are S.I. units (second, meters, Newtons, ...)
Angles are in degrees.

endheader
time	pelvis_tilt	pelvis_list	pelvis_rotation	pelvis_tx	pelvis_ty	pelvis_tz	hip_flexion_r	hip_adduction_r	hip_rotation_r	knee_angle_r	ankle_angle_r	subtalar_angle_r	mtp_angle_r	hip_flexion_l	hip_adduction_l	hip_rotation_l	knee_angle_l	ankle_angle_l	subtalar_angle_l	mtp_angle_l	lumbar_extension	lumbar_bending	lumbar_rotation
      5.74500000	     -1.55855335	      0.18387743	     -1.03186281	      1.30768107	      1.03680404	     -0.25928819	     -3.77298170	      4.81535906	     14.88873104	     -5.77008384	     12.11317229	    -17.82227404	      0.00000000	     27.32088468	     -3.78751093	    -13.72981955	    -50.43139478	      7.18266264	     -4.31955447	      0.00000000	    -12.98650929	     -1.22125457	      3.56159580
      5.75000000	     -1.55342119	      0.29027960	     -1.18921948	      1.31358021	      1.03666766	     -0.25948625	     -4.30113931	      4.63253785	     15.19970070	     -5.43100003	     12.00011564	    -18.09524312	      0.00000000	     27.40205920	     -3.57404255	    -13.85263048	    -48.81496436	      7.54291421	     -4.07476318	      0.00000000	    -12.99468726	     -1.37666744	      3.74660395
      5.75500000	     -1.68096142	      0.29191755	     -1.23651790	      1.31941408	      1.03625137	     -0.25982048	     -4.64341534	      4.58099179	     15.18708569	     -5.16762108	     11.97832209	    -18.14793720	      0.00000000	     27.64596309	     -3.42249819	    -13.81724298	    -47.20488435	      7.88841359	     -3.77746626	      0.00000000	    -12.85651371	     -1.38973548	      3.84300808
      5.76000000	     -1.79057444	      0.31611359	     -1.31166472	      1.32532854	      1.03581151	     -0.26013678	     -5.00642468	      4.49974260	     15.26291200	     -4.91513675	     11.97723208	    -18.22882832	      0.00000000	     27.82004248	     -3.25472474	    -13.81630834	    -45.51424842	      8.17809239	     -3.55016546	      0.00000000	    -12.72652279	     -1.43384065	      3.95929356
      5.76500000	     -1.70586445	      0.38645582	     -1.46952599	      1.33131864	      1.03563546	     -0.26040293	     -5.60453376	      4.34357054	     15.58376862	     -4.61433022	     11.85123999	    -18.49837775	      0.00000000	     27.71517164	     -3.06797072	    -13.94495768	    -43.71149972	      8.36196226	     -3.47521296	      0.00000000	    -12.82969215	     -1.53503175	      4.14386500
      5.77000000	     -1.81897761	      0.35101495	     -1.51135815	      1.33730880	      1.03505401	     -0.26078470	     -5.95631656	      4.32589130	     15.62643671	     -4.38918407	     11.86342750	    -18.55190795	      0.00000000	     27.84134488	     -2.94737505	    -13.90579629	    -41.93497351	      8.60319547	     -3.28225805	      0.00000000	    -12.69088290	     -1.49442327	      4.20701803
      5.77500000	     -1.80607210	      0.35417961	     -1.61963345	      1.34333320	      1.03463694	     -0.26110218	     -6.44167005	      4.25400386	     15.78911467	     -4.16786154	     11.84101534	    -18.68246778	      0.00000000	     27.76970960	     -2.79730828	    -13.92007158	    -40.05296231	      8.73714177	     -3.23997969	      0.00000000	    -12.70271861	     -1.52196892	      4.36293530
      5.78000000	     -1.90684587	      0.29436686	     -1.66603634	      1.34939260	      1.03398004	     -0.26151561	     -6.79627947	      4.25764505	     15.84094649	     -3.97451087	     11.85726517	    -18.71255505	      0.00000000	     27.81634907	     -2.69553699	    -13.85671828	    -38.17595992	      8.90090155	     -3.07184826	      0.00000000	    -12.57631563	     -1.45025327	      4.44271953
      5.78500000	     -1.95027607	      0.25394501	     -1.74550424	      1.35549457	      1.03337389	     -0.26192022	     -7.20785495	      4.23160966	     15.94031974	     -3.79451058	     11.88421957	    -18.74676594	      0.00000000	     27.75280042	     -2.57488743	    -13.81296167	    -36.21972594	      8.98443847	     -3.00389002	      0.00000000	    -12.51587523	     -1.40549770	      4.55957344
      5.79000000	     -1.96054286	      0.19149832	     -1.82238701	      1.36161406	      1.03276063	     -0.26234724	     -7.64724095	      4.22640230	     16.03467303	     -3.63492888	     11.91550839	    -18.76185439	      0.00000000	     27.62769083	     -2.47259901	    -13.74631667	    -34.23062723	      9.05030733	     -2.91492111	      0.00000000	    -12.49810290	     -1.33535794	      4.68200625
      5.79500000	     -1.98214617	      0.10362330	     -1.90118710	      1.36775633	      1.03208276	     -0.26274567	     -8.06459536	      4.25022967	     16.12193247	     -3.50218887	     11.96675270	    -18.74039527	      0.00000000	     27.49107964	     -2.39725328	    -13.64262161	    -32.21543077	      9.07477730	     -2.81366508	      0.00000000	    -12.46424501	     -1.24248238	      4.80468272
      5.80000000	     -1.98534808	      0.00099554	     -1.98282544	      1.37394411	      1.03138164	     -0.26317386	     -8.49467412	      4.28706893	     16.18326316	     -3.38844709	     12.03041837	    -18.68751768	      0.00000000	     27.30834264	     -2.33664373	    -13.54252003	    -30.17255876	      9.08288618	     -2.71553827	      0.00000000	    -12.45122042	     -1.13044735	      4.93791666
      5.80500000	     -2.00679595	     -0.11556143	     -2.06254784	      1.38014414	      1.03061961	     -0.26364690	     -8.89385351	      4.33500807	     16.24948728	     -3.30525459	     12.11302342	    -18.59239414	      0.00000000	     27.12667456	     -2.28716257	    -13.40378253	    -28.11519763	      9.03677822	     -2.58784608	      0.00000000	    -12.41965760	     -0.99323747	      5.06998223
      5.81000000	     -2.13178106	     -0.32257530	     -2.11401753	      1.38633224	      1.02963420	     -0.26407649	     -9.17083396	      4.49564807	     16.31903748	     -3.25568053	     12.16109726	    -18.52792509	      0.00000000	     27.07108118	     -2.33830452	    -13.19895011	    -26.11639967	      9.02533200	     -2.32838242	      0.00000000	    -12.25925866	     -0.75743643	      5.20658111
      5.81500000	     -2.00264625	     -0.36376263	     -2.22079967	      1.39269757	      1.02905459	     -0.26458846	     -9.71858479	      4.44521991	     16.32090370	     -3.20970707	     12.35573597	    -18.26081995	      0.00000000	     26.65113544	     -2.20686646	    -13.05550855	    -23.97341003	      8.80691585	     -2.27564888	      0.00000000	    -12.39227989	     -0.71673236	      5.32630562
      5.82000000	     -2.08582716	     -0.56080716	     -2.32011022	      1.39894847	      1.02808629	     -0.26503924	    -10.01544288	      4.57878600	     16.44587336	     -3.22430567	     12.46899754	    -18.11379753	      0.00000000	     26.50030756	     -2.25302489	    -12.81188599	    -21.94037524	      8.62353170	     -2.14719689	      0.00000000	    -12.28199100	     -0.49510269	      5.47435623
      5.82500000	     -2.10734413	     -0.70878943	     -2.41665049	      1.40531347	      1.02719718	     -0.26557392	    -10.37559097	      4.65018537	     16.50921885	     -3.25066192	     12.62990680	    -17.87378275	      0.00000000	     26.25112854	     -2.23887592	    -12.54493721	    -19.88609081	      8.34663667	     -2.06790287	      0.00000000	    -12.23381627	     -0.31854212	      5.62157380
      5.83000000	     -2.02173849	     -0.81906543	     -2.47354897	      1.41181795	      1.02642792	     -0.26617051	    -10.84684706	      4.68395095	     16.41227298	     -3.29143907	     12.85735461	    -17.50157163	      0.00000000	     25.86808664	     -2.17127631	    -12.23192645	    -17.84487708	      8.03732818	     -1.95201289	      0.00000000	    -12.30359500	     -0.18822854	      5.72447252
      5.83500000	     -2.04415106	     -1.00590941	     -2.58268988	      1.41827704	      1.02548407	     -0.26668501	    -11.18279342	      4.79723998	     16.45671706	     -3.38055180	     13.02470153	    -17.20726097	      0.00000000	     25.60637470	     -2.21170678	    -11.87924926	    -15.86982670	      7.67580487	     -1.90740569	      0.00000000	    -12.24584086	      0.02672727	      5.88856388
